# xmcd CD database file
#
# Track frame offsets:
#	183
#	26883
#	48695
#	72200
#	99758
#	122558
#	161933
#	189368
#	223123
#	244735
#	271318
#
# Disc length: 3853 seconds
#
# Revision: 0
# Processed by: cddbd v1.5.1PL2 Copyright (c) Steve Scherf et al.
# Submitted via: CDex 1.51
#
DISCID=9e0f0b0b
DTITLE=Billy Taylor - Its a matter of pride
DYEAR=1994
DGENRE=Jazz
TTITLE0=At la Caroussel
TTITLE1=Picture this
TTITLE2=Its a matter of pride
TTITLE3=His name was Martin
TTITLE4=Titoro
TTITLE5=Back Home
TTITLE6=Lookin' Up
TTITLE7=Paraphrase
TTITLE8=I'am a Lover
TTITLE9=If you realy are concerned
TTITLE10=Mood for Mendes
EXTD=YEAR: 1994
EXTT0=
EXTT1=
EXTT2=
EXTT3=
EXTT4=
EXTT5=
EXTT6=
EXTT7=
EXTT8=
EXTT9=
EXTT10=
PLAYORDER=
